<svg width="530" height="530" viewBox="0 0 530 530" fill="none" xmlns="http://www.w3.org/2000/svg">
<rect width="530" height="530" rx="50" fill="#000031"/>
<path d="M238.339 339.975C238.339 302.555 214.897 269.066 179.66 256.398C141.657 242.711 116.322 206.601 116.322 166.123V115.161C183.883 115.161 238.484 169.909 238.484 237.324L238.339 339.975Z" fill="#0074BC"/>
<path d="M362.831 179.955H436.507C437.09 179.955 437.235 179.081 436.507 178.936L361.521 168.743L362.831 179.955Z" fill="#0074BC"/>
<path d="M361.958 179.227C320.315 170.636 277.07 184.469 248.094 215.628L238.339 226.112V296.002V356.137C238.339 356.137 238.339 356.137 238.484 356.137V433.89C261.199 433.89 275.905 409.865 265.421 389.772L255.666 370.843C247.949 355.7 252.026 337.208 265.276 326.433C297.6 300.37 320.169 268.483 325.702 236.45C333.565 190.875 365.161 179.955 365.161 179.955L361.958 179.227Z" fill="url(#paint0_linear)"/>
<path d="M238.339 306.923V206.164C238.339 181.557 249.987 162.483 268.188 150.98C294.106 134.527 327.741 137.002 351.62 156.222C359.482 162.483 365.307 170.345 365.307 179.955C295.125 179.955 238.339 236.741 238.339 306.923Z" fill="url(#paint1_linear)"/>
<path d="M238.339 296.003C238.339 258.582 214.897 225.093 179.66 212.426C141.657 198.739 116.322 162.629 116.322 122.15V96.0869C183.883 96.0869 238.484 150.835 238.484 218.25L238.339 296.003Z" fill="url(#paint2_linear)"/>
<path d="M238.339 343.469L218.973 433.89H238.339V343.469Z" fill="#0074BC"/>
<defs>
<linearGradient id="paint0_linear" x1="319.514" y1="186.504" x2="220.588" y2="384.356" gradientUnits="userSpaceOnUse">
<stop stop-color="#FFDD00"/>
<stop offset="1" stop-color="#EF4056"/>
</linearGradient>
<linearGradient id="paint1_linear" x1="369.51" y1="223.528" x2="102.187" y2="223.528" gradientUnits="userSpaceOnUse">
<stop stop-color="#5BC4BF"/>
<stop offset="1" stop-color="#2A5CAA"/>
</linearGradient>
<linearGradient id="paint2_linear" x1="116.187" y1="196.093" x2="317.479" y2="196.093" gradientUnits="userSpaceOnUse">
<stop stop-color="#5BC4BF"/>
<stop offset="1" stop-color="#2A5CAA"/>
</linearGradient>
</defs>
</svg>
